<?xml version="1.0" encoding="UTF-8" standalone="no"?>
<!-- Created with Inkscape (http://www.inkscape.org/) -->

<svg
   version="1.1"
   id="svg59"
   width="2560"
   height="2560"
   viewBox="0 0 2560 2560"
   sodipodi:docname="caregivee_notification_vector.svg"
   inkscape:version="1.2 (dc2aedaf03, 2022-05-15)"
   xmlns:inkscape="http://www.inkscape.org/namespaces/inkscape"
   xmlns:sodipodi="http://sodipodi.sourceforge.net/DTD/sodipodi-0.dtd"
   xmlns="http://www.w3.org/2000/svg"
   xmlns:svg="http://www.w3.org/2000/svg">
  <defs
     id="defs63" />
  <sodipodi:namedview
     id="namedview61"
     pagecolor="#ffffff"
     bordercolor="#000000"
     borderopacity="0.25"
     inkscape:showpageshadow="2"
     inkscape:pageopacity="0.0"
     inkscape:pagecheckerboard="0"
     inkscape:deskcolor="#d1d1d1"
     showgrid="false"
     inkscape:zoom="0.21682767"
     inkscape:cx="1242.9226"
     inkscape:cy="1206.0269"
     inkscape:window-width="1920"
     inkscape:window-height="1001"
     inkscape:window-x="-9"
     inkscape:window-y="-9"
     inkscape:window-maximized="1"
     inkscape:current-layer="g65" />
  <g
     inkscape:groupmode="layer"
     inkscape:label="Image"
     id="g65">
    <path
       style="fill:#000000;fill-opacity:1;stroke-width:3.26115"
       d="M 1260.8342,2499.381 C 1226.5094,2488.5406 1007.3612,2309.3034 864.61104,2175.3175 807.09319,2121.331 641.283,1953.8996 596.82503,1904.9131 286.07316,1562.5084 104.90227,1257.466 51.305223,986.40641 39.023161,924.29151 36.414251,895.77222 36.538101,824.97961 36.63941,767.07211 37.931779,747.76779 43.961129,714.10063 68.454649,577.33183 126.21571,466.29008 228.66442,359.02096 323.10244,260.13944 437.02898,194.6072 550.80579,173.72048 c 48.20985,-8.85019 127.3913,-7.42798 176.83097,3.17611 56.40016,12.09701 94.50313,25.4735 150.01274,52.66367 119.79757,58.68029 238.4798,156.91395 369.6884,305.99259 18.5489,21.07516 34.1362,38.31848 34.6384,38.31848 0.5022,0 16.8433,-17.97707 36.3136,-39.94905 82.6317,-93.24867 161.0285,-167.63392 234.787,-222.77293 35.3793,-26.44829 36.5528,-27.73952 49.268,-54.2113 7.1639,-14.91472 19.922,-43.49977 28.3512,-63.52232 14.8075,-35.17353 32.3917,-66.96126 45.9343,-83.03754 29.9011,-35.495254 65.627,-40.635134 90.5667,-13.029834 19.4118,21.486514 30.1641,57.674254 57.5882,193.818864 8.9644,44.50256 20.0203,94.89577 24.5688,111.98491 4.5485,17.08916 8.2699,31.67418 8.2699,32.41114 0,0.73695 1.3988,1.3399 3.1086,1.3399 4.6096,0 13.3131,-21.41875 39.3393,-96.81143 26.6145,-77.09731 41.5078,-109.50642 58.2376,-126.73058 30.0953,-30.98465 65.9682,-21.92806 82.1203,20.73237 3.8638,10.20518 13.4752,50.05181 21.3586,88.54808 7.8833,38.49627 15.2122,72.76244 16.2865,76.14703 1.4177,4.4669 7.6061,-5.33332 22.5753,-35.75117 34.5285,-70.16353 59.8387,-91.08399 107.2847,-88.67751 35.4989,1.80052 54.4826,12.70269 100.9381,57.96777 195.6134,190.6009 258.9713,409.83046 197.4967,683.37337 -69.6004,309.7001 -311.0405,672.0231 -709.561,1064.8199 -145.7877,143.6939 -300.1454,279.3268 -426.7261,374.9609 -44.0497,33.2804 -54.9861,40.1179 -72.1236,45.0921 -16.3202,4.7369 -18.5782,4.6644 -37.1248,-1.193 z m 33.7386,-122.7395 c 36.1855,-25.2078 177.4027,-141.8008 241.8202,-199.6538 50.8965,-45.7098 60.4277,-54.5029 115.6422,-106.6881 217.4883,-205.5555 400.4782,-415.8351 527.8158,-606.53 192.254,-287.9108 269.1443,-534.01609 231.6708,-741.51611 -14.9636,-82.85689 -54.6382,-168.85538 -109.8284,-238.06369 -19.4704,-24.41581 -98.4151,-109.24841 -101.6658,-109.24841 -3.7072,0 -32.8825,30.08355 -55.8922,57.63215 -37.6706,45.10147 -58.866,55.79411 -79.0798,39.89397 -16.8702,-13.27013 -26.0452,-39.39674 -47.4185,-135.0293 -16.1124,-72.09269 -19.2149,-83.15924 -23.3141,-83.15924 -5.1055,0 -14.9836,25.95642 -37.2323,97.83439 -26.7191,86.32037 -30.1262,96.21032 -39.8838,115.77071 -12.0788,24.21332 -22.6,36.80422 -36.8139,44.05557 -16.0061,8.16572 -29.4054,8.23029 -45.1119,0.21752 -30.6156,-15.61903 -44.3395,-54.69468 -78.5442,-223.63615 -19.5691,-96.65435 -23.5977,-112.96361 -27.9282,-113.06514 -4.0734,-0.0955 -8.5006,12.72442 -24.9269,72.18016 -16.5201,59.79532 -29.8946,94.48693 -43.1524,111.93073 -5.7452,7.55923 -25.9646,25.48418 -44.9321,39.83323 -72.883,55.13653 -142.6811,122.55923 -231.3499,223.47619 -24.3847,27.75304 -50.3499,55.88435 -57.7005,62.51393 -15.4578,13.94166 -35.6148,20.43369 -54.2111,17.46002 -24.0105,-3.83945 -34.5969,-13.24857 -104.7281,-93.08164 C 996.12817,414.33904 848.06685,310.02504 702.57843,281.99934 667.47669,275.23763 599.39811,275.2784 563.52925,282.08264 475.41258,298.79808 386.55123,351.61733 304.96838,435.77142 100.95266,646.21705 90.0852,926.87264 272.40816,1276.6484 c 113.75607,218.2342 285.38463,439.6473 534.64694,689.7325 105.14964,105.4967 126.86956,126.3295 202.6944,194.4152 102.2267,91.7929 262.126,223.0115 271.7556,223.0115 1.5295,0 7.41,-3.2248 13.0677,-7.1661 z"
       id="path3805" />
    <path
       style="fill:#000000;fill-opacity:1;stroke-width:3.26115"
       d="m 823.84058,1501.6933 c -105.97314,-21.2625 -201.54041,-99.8289 -252.84777,-207.8677 -10.8876,-22.9261 -11.93573,-27.6571 -12.32713,-55.6403 -0.46093,-32.9541 2.95869,-42.6655 18.64202,-52.9417 6.57741,-4.3096 10.11445,-4.4787 23.45034,-1.1207 12.49583,3.1465 20.06591,8.3388 37.04964,25.412 11.73975,11.8016 24.95664,28.795 29.37086,37.7631 27.44752,55.7638 75.07514,106.1305 122.94622,130.017 59.8963,29.8867 132.21301,28.5342 190.25085,-3.5583 12.00896,-6.6404 31.34779,-21.9712 44.61409,-35.3677 18.7248,-18.9085 26.6975,-30.334 39.7911,-57.0239 41.6121,-84.8213 90.4769,-115.5515 110.0831,-69.2291 2.8146,6.6498 4.4416,23.2363 4.4416,45.2787 0,34.3589 -0.1761,35.1566 -14.3852,65.1523 -45.5123,96.0773 -126.4356,160.1968 -226.41119,179.3965 -29.23507,5.6145 -86.00582,5.4806 -114.66853,-0.2702 z"
       id="path3807" />
    <path
       style="fill:#000000;fill-opacity:1;stroke-width:3.26115"
       d="m 1251.0508,1964.3883 c -50.7829,-9.0988 -87.5776,-23.1832 -127.1848,-48.6844 -55.1337,-35.498 -108.2223,-97.2156 -137.57043,-159.9311 -8.70584,-18.604 -10.40687,-26.469 -11.5015,-53.1794 -1.78225,-43.4889 5.44833,-55.7418 30.15833,-51.1062 17.762,3.3322 48.6061,35.5195 67.8391,70.7932 19.6412,36.0225 33.8177,55.5668 58.2983,80.3729 112.6808,114.1787 282.602,88.547 351.7685,-53.0624 37.3229,-76.4138 76.4575,-110.9588 93.8435,-82.8377 6.6876,10.8169 9.6102,40.18 6.7868,68.1868 -7.6492,75.877 -92.6703,176.7139 -176.4468,209.2697 -39.0963,15.1929 -62.1497,19.716 -105.4433,20.6877 -23.3172,0.5234 -46.0637,0.2943 -50.5477,-0.5091 z"
       id="path3809" />
    <path
       style="fill:#000000;fill-opacity:1;stroke-width:3.26115"
       d="m 1635.866,1500.2486 c -98.5343,-14.5582 -182.1732,-73.5623 -231.6435,-163.4156 -21.5924,-39.2184 -26.9737,-58.7331 -25.1395,-91.1655 2.6567,-46.9758 15.0591,-65.0481 40.0471,-58.3554 19.1069,5.1175 50.3086,38.7625 65.5387,70.6708 24.8076,51.974 47.0119,79.7766 82.3743,103.1435 110.932,73.3019 251.2688,24.2673 322.2842,-112.6083 19.4798,-37.5454 51.2878,-66.6108 76.7094,-70.0952 13.1895,-1.8079 15.0141,-1.1409 23.0703,8.4335 11.6143,13.8027 13.178,21.5358 11.2375,55.5703 -1.4997,26.3029 -2.8896,31.0817 -16.4571,56.586 -19.547,36.7446 -34.8018,59.4108 -55.8929,83.048 -68.0431,76.2574 -147.413,116.05 -238.3195,119.4832 -19.73,0.7451 -43.944,0.1621 -53.809,-1.2953 z"
       id="path3811" />
    <path
       style="fill:#000000;fill-opacity:1;stroke-width:3.26115"
       d="m 1999.4839,1036.0519 c -12.6764,-6.8101 -32.2479,-23.1444 -55.577,-46.38439 -53.6903,-53.4853 -99.6424,-83.86209 -162.2597,-107.26235 -43.4537,-16.23873 -75.0783,-21.92148 -137.6283,-24.73095 -44.608,-2.0036 -58.9991,-3.85471 -73.6588,-9.47466 -39.7886,-15.25333 -31.3625,-38.02349 20.5593,-55.55775 24.3956,-8.23854 55.3975,-8.80374 107.5567,-1.96089 115.5296,15.15652 218.132,67.42374 296.4374,151.0098 31.5314,33.6577 49.7821,73.83849 44.0009,96.87249 -2.8601,11.3957 -14.9808,10.6237 -39.4305,-2.5113 z"
       id="path3813" />
    <path
       style="fill:#000000;fill-opacity:1;stroke-width:3.26115"
       d="m 525.14889,1038.5632 c -5.85623,-23.333 12.75668,-64.13629 44.50068,-97.55439 89.98913,-94.7352 206.5049,-147.6826 339.16012,-154.12209 34.2238,-1.66133 43.85798,-1.03362 58.70063,3.82458 56.96128,18.6442 67.43768,41.64712 26.19285,57.51166 -14.7502,5.6736 -28.77528,7.46469 -73.65877,9.40671 -62.43119,2.70127 -93.64262,8.35412 -138.59873,25.10228 -61.83484,23.03624 -108.86734,54.42256 -163.75664,109.28016 -47.47103,47.44349 -87.28897,67.47349 -92.54014,46.55109 z"
       id="path3817" />
  </g>
</svg>
